<?xml version="1.0" standalone="no"?>
<!DOCTYPE svg PUBLIC "-//W3C//DTD SVG 20010904//EN"
 "http://www.w3.org/TR/2001/REC-SVG-20010904/DTD/svg10.dtd">
<svg version="1.0" xmlns="http://www.w3.org/2000/svg"
 width="980.000000pt" height="980.000000pt" viewBox="0 0 980.000000 980.000000"
 preserveAspectRatio="xMidYMid meet">

<g transform="translate(0.000000,980.000000) scale(0.100000,-0.100000)"
fill="#000000" stroke="none">
<path d="M0 8320 c0 -1309 2 -1480 15 -1480 11 0 15 11 15 40 l0 40 40 0 40 0
0 40 c0 22 5 40 10 40 6 0 10 18 10 40 0 29 4 40 15 40 11 0 15 11 15 40 0 29
4 40 15 40 11 0 15 11 15 40 0 22 5 40 10 40 6 0 10 18 10 40 0 38 2 40 30 40
28 0 30 2 30 40 0 36 3 40 25 40 23 0 25 4 25 40 0 29 4 40 15 40 11 0 15 11
15 40 l0 40 50 0 50 0 0 39 c0 22 -6 42 -12 44 -9 4 -4 14 14 31 16 14 28 30
28 36 0 5 7 10 15 10 11 0 15 12 15 49 0 41 4 53 25 69 14 11 25 25 25 31 0 6
11 11 25 11 23 0 25 4 25 40 0 29 4 40 15 40 8 0 15 5 15 11 0 6 11 20 25 31
14 11 25 25 25 33 0 7 7 18 15 25 12 10 15 10 15 -4 0 -10 9 -16 25 -16 23 0
25 4 25 40 0 29 4 40 15 40 9 0 15 9 15 23 0 29 29 57 58 57 12 0 22 4 22 9 0
12 59 71 71 71 5 0 9 22 9 49 0 42 5 54 31 80 17 17 35 31 40 31 5 0 9 4 9 9
0 12 59 71 71 71 5 0 9 6 9 13 0 7 9 18 20 25 12 7 25 24 30 37 5 14 21 30 35
35 13 5 30 18 37 30 7 11 18 20 25 20 7 0 13 4 13 9 0 12 59 71 71 71 5 0 9
-7 9 -16 0 -14 2 -15 17 -3 15 13 15 14 0 17 -34 7 -18 32 19 32 27 0 41 7 56
25 11 14 30 25 44 25 13 0 24 5 24 11 0 6 11 20 25 31 14 11 25 25 25 31 1 28
39 57 74 57 37 0 53 25 19 32 -15 3 -15 4 0 17 15 12 17 11 17 -3 0 -24 15
-20 49 15 18 17 31 41 31 55 0 21 4 24 40 24 36 0 40 3 40 25 0 20 5 25 24 25
13 0 29 7 36 15 7 8 18 15 25 15 8 0 22 11 33 25 11 14 25 25 31 25 6 0 11 7
11 15 0 11 11 15 40 15 36 0 40 3 40 25 0 20 5 25 24 25 13 0 29 7 36 15 7 9
29 15 53 15 30 0 46 6 63 25 13 14 32 25 44 25 15 0 20 6 20 25 0 25 1 25 80
25 l80 0 0 30 c0 28 2 30 40 30 l40 0 0 40 0 40 49 0 c41 0 53 4 69 25 14 18
29 25 55 25 19 0 40 7 47 15 8 9 30 15 56 15 24 0 44 5 44 10 0 6 18 10 40 10
38 0 40 2 40 30 0 28 2 30 40 30 22 0 40 5 40 10 0 6 18 10 40 10 29 0 40 4
40 15 0 13 -180 15 -1560 15 l-1560 0 0 -1480z m2072 1008 c-7 -7 -12 -8 -12
-2 0 14 12 26 19 19 2 -3 -1 -11 -7 -17z m-640 -480 c-7 -7 -12 -8 -12 -2 0
14 12 26 19 19 2 -3 -1 -11 -7 -17z m-637 -637 c-3 -6 -11 -11 -17 -11 -6 0
-6 6 2 15 14 17 26 13 15 -4z"/>
<path d="M6480 9785 c0 -11 11 -15 40 -15 36 0 40 -2 40 -25 0 -25 1 -25 80
-25 79 0 80 0 80 -25 0 -22 4 -25 40 -25 29 0 40 -4 40 -15 0 -11 11 -15 40
-15 29 0 40 -4 40 -15 0 -11 11 -15 40 -15 22 0 40 -4 40 -10 0 -5 18 -10 40
-10 l40 0 0 -40 0 -40 40 0 c29 0 40 -4 40 -15 0 -11 11 -15 40 -15 29 0 40
-4 40 -15 0 -11 11 -15 40 -15 22 0 40 -4 40 -10 0 -5 18 -10 40 -10 l40 0 0
-40 0 -40 40 0 c29 0 40 -4 40 -15 0 -11 11 -15 40 -15 29 0 40 -4 40 -15 0
-11 11 -15 40 -15 22 0 40 -4 40 -10 0 -5 18 -10 40 -10 29 0 40 -4 40 -15 0
-11 -11 -15 -40 -15 -29 0 -40 -4 -40 -15 0 -11 11 -15 40 -15 36 0 40 -2 40
-25 0 -22 4 -25 40 -25 29 0 40 -4 40 -15 0 -11 11 -15 40 -15 l40 0 0 -50 0
-50 44 0 c26 0 48 -6 56 -15 10 -12 10 -15 -4 -15 -9 0 -16 -7 -16 -15 0 -11
11 -15 40 -15 l40 0 0 -50 0 -50 40 0 c29 0 40 -4 40 -15 0 -9 9 -15 22 -15
12 0 30 -7 40 -17 17 -15 18 -15 18 0 0 10 4 17 9 17 12 0 71 -59 71 -71 0 -5
4 -9 9 -9 5 0 23 -14 40 -31 17 -17 31 -35 31 -40 0 -5 5 -9 10 -9 6 0 22 -12
35 -27 21 -24 26 -26 34 -13 9 13 14 12 33 -8 20 -19 21 -24 8 -33 -13 -8 -11
-13 13 -34 15 -13 27 -33 27 -44 0 -20 54 -81 71 -81 5 0 9 -4 9 -9 0 -12 59
-71 71 -71 5 0 9 -5 9 -10 0 -6 12 -22 28 -35 23 -21 25 -26 12 -35 -13 -9
-11 -14 13 -35 15 -13 27 -29 27 -35 0 -5 11 -10 23 -10 29 0 57 -29 57 -58 0
-13 6 -22 15 -22 11 0 15 -11 15 -37 1 -29 7 -42 25 -56 22 -15 25 -16 25 -2
0 9 9 15 25 15 23 0 25 -4 25 -40 0 -29 4 -40 15 -40 8 0 15 -5 15 -11 0 -6
11 -20 25 -31 14 -11 25 -25 25 -33 0 -7 7 -18 15 -25 8 -7 15 -23 15 -36 0
-19 5 -24 25 -24 23 0 25 -4 25 -40 0 -29 4 -40 15 -40 8 0 15 -5 15 -10 0 -6
12 -22 28 -35 23 -21 25 -26 12 -35 -13 -9 -11 -14 13 -35 15 -13 27 -29 27
-35 0 -5 11 -10 25 -10 23 0 25 -4 25 -40 0 -29 4 -40 15 -40 11 0 15 -11 15
-40 0 -36 3 -40 25 -40 23 0 25 -4 25 -40 0 -38 2 -40 30 -40 28 0 30 -2 30
-40 0 -22 5 -40 10 -40 6 0 10 -18 10 -40 0 -29 4 -40 15 -40 11 0 15 -11 15
-40 0 -36 3 -40 25 -40 23 0 25 -4 25 -40 0 -38 2 -40 30 -40 28 0 30 -2 30
-40 0 -22 5 -40 10 -40 6 0 10 -18 10 -40 0 -29 4 -40 15 -40 11 0 15 -11 15
-40 0 -29 4 -40 15 -40 12 0 15 -16 15 -80 l0 -80 40 0 40 0 0 -40 c0 -22 5
-40 10 -40 6 0 10 -33 10 -80 0 -73 2 -80 20 -80 17 0 20 -7 20 -40 0 -29 4
-40 15 -40 13 0 15 202 15 1760 l0 1760 -1660 0 c-1469 0 -1660 -2 -1660 -15z"/>
<path d="M2293 9338 c-23 -18 -28 -27 -22 -43 7 -19 8 -19 8 3 1 12 6 22 11
22 6 0 10 -39 10 -96 l0 -96 -96 3 -97 3 2 -97 2 -97 -95 0 c-111 0 -109 2
-102 -114 l5 -75 -97 -3 -97 -3 0 -93 0 -92 -87 0 c-47 0 -92 -2 -100 -5 -10
-4 -12 -44 -10 -196 l3 -191 -96 4 -95 3 0 -292 0 -293 95 0 94 0 3 -97 3 -98
575 -1 575 -1 3 -96 3 -97 94 0 95 0 0 -95 0 -95 190 0 190 0 0 -95 0 -95 195
0 195 0 0 -95 0 -95 95 0 95 0 0 -95 0 -95 195 0 195 0 0 -100 0 -100 95 0 95
0 0 -95 0 -95 95 0 95 0 0 -190 0 -190 95 0 95 0 2 -192 3 -193 98 -3 97 -3 0
-94 0 -95 95 0 95 0 0 -285 0 -285 95 0 95 0 0 -290 0 -290 95 0 95 0 0 -290
0 -290 95 0 95 0 0 -190 0 -189 98 -3 97 -3 3 -192 2 -193 95 0 95 0 0 -95 0
-95 95 0 95 0 0 -95 0 -95 95 0 94 0 3 -98 3 -97 93 -3 92 -3 0 -94 0 -95 95
0 95 0 0 -95 0 -95 100 0 100 0 0 -95 0 -95 95 0 95 0 0 -100 0 -100 95 0 95
0 0 -95 0 -95 189 0 188 0 3 -92 c1 -51 2 -99 3 -105 0 -15 17 -18 17 -3 0 12
356 14 363 3 3 -5 -77 -7 -176 -6 -133 2 -175 -1 -157 -8 14 -6 37 -8 53 -5
20 4 27 1 27 -9 0 -11 -11 -15 -36 -15 -27 0 -41 -7 -56 -25 -11 -14 -30 -25
-44 -25 -19 0 -24 -5 -24 -25 0 -22 -4 -25 -40 -25 -28 0 -40 -4 -40 -14 0 -8
7 -16 17 -18 15 -3 15 -4 0 -17 -15 -12 -17 -11 -17 3 0 24 -15 20 -49 -15
-18 -17 -31 -41 -31 -55 0 -21 -4 -24 -40 -24 -22 0 -40 -4 -40 -10 0 -5 -18
-10 -40 -10 -29 0 -40 -4 -40 -15 0 -8 7 -15 16 -15 14 0 14 -3 4 -15 -7 -8
-18 -15 -25 -15 -8 0 -22 -11 -33 -25 -23 -29 -42 -33 -42 -9 0 14 -2 15 -17
3 -15 -13 -15 -14 0 -17 10 -2 17 -10 17 -18 0 -10 -13 -14 -49 -14 -41 0 -53
-4 -69 -25 -17 -21 -28 -25 -71 -25 -48 0 -51 -2 -51 -25 0 -22 -4 -25 -40
-25 -38 0 -40 -2 -40 -30 0 -28 -2 -30 -40 -30 -22 0 -40 -4 -40 -10 0 -5 -18
-10 -40 -10 -29 0 -40 -4 -40 -15 0 -11 -11 -15 -40 -15 -36 0 -40 -2 -40 -25
0 -22 -4 -25 -39 -25 -40 0 -40 0 -43 -42 l-3 -43 -14 28 c-17 33 -25 34 -39
2 -11 -24 -16 -25 -97 -25 l-85 0 0 -35 0 -35 1620 0 1620 0 0 430 0 430 -382
2 -383 3 -5 95 -5 95 -380 0 -380 0 -5 95 -5 95 -187 3 -188 2 0 95 0 95 -195
0 -195 0 0 95 0 95 -95 0 -95 0 0 95 0 94 -92 3 -93 3 -3 92 -3 93 -27 1 c-15
0 -57 0 -93 -1 -78 -2 -79 -1 -79 122 l0 77 -92 3 -93 3 -3 93 -3 92 -94 0
-95 0 0 95 0 95 -95 0 -95 0 -2 193 -3 192 -92 3 -93 3 0 189 0 189 -97 3 -98
3 -3 288 -2 287 -95 0 -95 0 0 285 0 284 -92 3 -93 3 -3 288 -2 287 -95 0 -95
0 0 95 0 94 -97 3 -98 3 -3 185 c-2 101 -5 186 -7 189 -2 2 -42 5 -87 7 -46 1
-86 3 -90 3 -5 1 -8 174 -8 386 l0 385 195 0 195 0 0 95 0 95 95 0 94 0 3 97
3 97 93 -3 92 -3 0 196 0 196 95 0 95 0 2 288 3 287 95 0 95 0 3 -97 3 -98 94
0 95 0 2 -191 3 -191 90 -2 90 -1 3 -287 2 -288 95 0 c52 0 95 -3 95 -7 0 -5
1 -91 3 -193 l2 -185 98 -3 98 -3 -3 -284 -3 -285 98 0 97 0 0 -290 0 -290 95
0 95 0 0 -190 0 -190 95 0 95 0 0 -95 0 -94 98 -3 97 -3 3 -97 3 -98 94 0 95
0 0 -95 0 -95 95 0 95 0 0 -95 0 -95 95 0 95 0 0 -95 0 -95 193 -2 192 -3 5
-95 5 -95 380 0 380 0 3 98 3 97 189 0 190 0 0 195 0 195 -195 0 -195 0 0 -95
0 -95 -252 -2 c-139 0 -310 -2 -380 -4 l-128 -2 0 99 0 100 -185 -1 c-101 -1
-189 1 -194 5 -6 3 -9 43 -8 93 l2 87 -97 3 -98 3 0 94 0 95 -95 0 -95 0 0 95
0 95 -95 0 -95 0 0 190 0 190 -95 0 -95 0 -2 288 -3 287 -95 5 -95 5 -3 288
-2 287 -95 0 -95 0 0 190 0 190 -95 0 -95 0 0 385 0 385 -95 0 -95 0 -2 193
-3 192 -92 3 -93 3 0 379 0 380 95 0 95 0 0 190 0 190 95 0 95 0 0 195 0 195
-22 1 c-13 1 -40 2 -61 3 -21 1 -143 0 -270 -3 l-232 -6 0 -90 0 -90 -95 -1
c-85 -2 -95 -4 -96 -20 -1 -11 -2 -54 -3 -96 l-1 -78 -280 0 -280 0 0 95 0 94
-96 3 -96 3 -2 90 -1 90 -197 3 -198 2 0 -95 0 -95 -95 0 -95 0 0 -95 0 -95
-90 0 -90 0 0 95 0 95 -190 0 c-104 0 -193 0 -197 0 -5 0 -9 -43 -11 -95 l-3
-95 -279 0 c-217 0 -280 3 -281 13 0 6 0 49 -1 94 l0 82 -97 3 -96 3 0 87 c0
47 -2 88 -5 91 -4 4 -800 16 -1062 17 -72 0 -103 12 -60 23 13 4 13 5 1 6 -8
0 -29 -9 -46 -21z m1167 -493 l0 -95 73 -2 c39 -1 81 -2 92 -2 18 -1 20 -9 23
-93 3 -84 4 -91 25 -97 12 -3 100 -6 195 -6 l172 0 0 -95 0 -95 95 0 95 0 0
-95 0 -95 190 0 190 0 0 95 0 95 95 0 95 0 2 193 3 192 35 1 c19 1 61 2 92 3
l57 1 3 93 3 92 193 3 192 2 0 -94 0 -94 90 -4 c49 -2 92 -7 95 -10 10 -10 13
-38 14 -116 l1 -73 188 1 187 2 3 -96 3 -96 -95 0 -96 0 -2 -287 -3 -288 -94
-5 -94 -5 2 -187 2 -188 -85 -1 c-47 -1 -92 -2 -98 -3 -10 -1 -14 -48 -16
-194 l-2 -192 -673 2 -672 3 -3 92 -3 93 -382 2 -382 3 -3 98 -3 97 101 0 101
0 -3 93 -3 92 -288 3 -287 2 2 193 3 192 93 3 92 3 0 88 0 88 -137 6 c-75 4
-333 7 -575 7 l-438 0 0 -95 0 -95 -190 0 -190 0 0 90 0 90 95 0 95 0 0 195 0
195 478 2 c373 2 477 6 478 16 1 6 2 93 3 192 l1 180 385 0 385 0 0 -95z
m1150 -10 l0 -95 -190 0 -190 0 0 95 0 95 190 0 190 0 0 -95z m-1918 -960 l-3
-95 -285 0 c-220 0 -284 -3 -284 -12 -1 -7 -2 -49 -3 -93 l-2 -80 -285 0 -285
0 -3 93 -3 92 191 0 190 0 0 95 0 95 388 0 387 0 -3 -95z m5258 -7119 c0 -2
-7 -9 -15 -16 -12 -10 -15 -10 -15 4 0 9 7 16 15 16 8 0 15 -2 15 -4z"/>
<path d="M2230 9308 c0 -7 4 -19 9 -27 7 -10 9 -7 8 12 -2 26 -17 39 -17 15z"/>
<path d="M2280 9202 l5 -47 3 39 c2 21 0 42 -5 47 -4 4 -6 -13 -3 -39z"/>
<path d="M1697 8740 c-3 -11 -1 -20 4 -20 5 0 9 9 9 20 0 11 -2 20 -4 20 -2 0
-6 -9 -9 -20z"/>
<path d="M0 1500 l0 -1500 1520 0 c1513 0 1520 0 1520 20 0 11 -5 20 -11 20
-6 0 -20 11 -31 25 -16 21 -28 25 -69 25 -48 0 -49 1 -49 30 0 28 -2 30 -40
30 -22 0 -40 5 -40 10 0 6 -18 10 -40 10 -29 0 -40 4 -40 15 0 9 -9 15 -24 15
-13 0 -29 7 -36 15 -8 9 -30 15 -56 15 l-44 0 0 40 0 40 -40 0 c-22 0 -40 5
-40 10 0 6 -18 10 -40 10 -29 0 -40 4 -40 15 0 11 -11 15 -40 15 -29 0 -40 4
-40 15 0 11 -11 15 -40 15 -36 0 -40 3 -40 25 0 23 -4 25 -40 25 -36 0 -40 3
-40 25 0 23 -4 25 -40 25 -38 0 -40 2 -40 30 0 28 -2 30 -40 30 -36 0 -40 3
-40 25 0 20 -5 25 -24 25 -13 0 -29 7 -36 15 -7 8 -18 15 -25 15 -8 0 -22 11
-33 25 -11 14 -25 25 -31 25 -6 0 -11 7 -11 15 0 11 -11 15 -37 15 -29 1 -42
7 -56 25 -15 22 -16 25 -2 25 9 0 15 9 15 25 0 23 -4 25 -40 25 -29 0 -40 4
-40 15 0 11 -11 15 -40 15 -22 0 -40 4 -40 9 0 12 -59 71 -71 71 -5 0 -9 4 -9
9 0 12 -59 71 -71 71 -5 0 -9 -7 -9 -17 0 -15 -1 -15 -18 0 -10 10 -28 17 -40
17 -12 0 -22 4 -22 9 0 12 -59 71 -71 71 -5 0 -9 11 -9 24 0 23 -40 62 -95 92
-11 6 -26 24 -34 39 -17 35 -98 115 -116 115 -8 0 -22 11 -33 25 -11 14 -25
25 -31 25 -6 0 -11 11 -11 24 0 14 -11 33 -25 44 -18 15 -25 29 -25 56 0 25
-4 36 -15 36 -9 0 -15 -9 -15 -25 0 -30 -11 -32 -36 -4 -16 17 -16 22 -4 30
13 8 10 14 -12 34 -16 13 -28 29 -28 35 0 5 -4 10 -9 10 -12 0 -71 59 -71 70
0 5 7 10 17 12 15 3 15 4 0 17 -15 12 -17 11 -17 -3 0 -9 -7 -16 -15 -16 -11
0 -15 11 -15 40 0 36 -2 40 -25 40 -20 0 -25 5 -25 24 0 13 -7 29 -15 36 -9 8
-15 30 -15 56 0 43 0 44 -34 44 -25 0 -43 8 -65 31 -26 26 -31 38 -31 80 0 46
-2 49 -25 49 -22 0 -25 4 -25 40 0 38 -2 40 -30 40 -29 0 -30 1 -30 48 0 48
-20 82 -47 82 -6 0 -16 7 -23 15 -10 12 -10 15 4 15 9 0 16 4 16 9 0 12 -59
71 -71 71 -5 0 -9 5 -9 10 0 6 -12 22 -27 35 -23 20 -25 26 -14 34 12 8 10 15
-12 41 -15 18 -27 44 -27 60 0 15 -7 33 -15 40 -9 8 -15 30 -15 56 l0 44 -40
0 -40 0 0 80 c0 47 -4 80 -10 80 -5 0 -10 18 -10 40 0 29 -4 40 -15 40 -13 0
-15 -173 -15 -1500z m310 770 c0 -5 -2 -10 -4 -10 -3 0 -8 5 -11 10 -3 6 -1
10 4 10 6 0 11 -4 11 -10z m320 -480 c0 -5 -2 -10 -4 -10 -3 0 -8 5 -11 10 -3
6 -1 10 4 10 6 0 11 -4 11 -10z"/>
<path d="M7852 865 c0 -16 2 -22 5 -12 2 9 2 23 0 30 -3 6 -5 -1 -5 -18z"/>
<path d="M3050 20 c0 -16 7 -20 30 -20 23 0 30 4 30 20 0 16 -7 20 -30 20 -23
0 -30 -4 -30 -20z"/>
<path d="M6490 20 c0 -16 7 -20 30 -20 23 0 30 4 30 20 0 16 -7 20 -30 20 -23
0 -30 -4 -30 -20z"/>
</g>
</svg>
